<?xml version="1.0" standalone="no"?>
<!DOCTYPE svg PUBLIC "-//W3C//DTD SVG 20010904//EN"
 "http://www.w3.org/TR/2001/REC-SVG-20010904/DTD/svg10.dtd">
<svg version="1.0" xmlns="http://www.w3.org/2000/svg"
 width="500.000000pt" height="500.000000pt" viewBox="0 0 500.000000 500.000000"
 preserveAspectRatio="xMidYMid meet">
<metadata>
Created by potrace 1.11, written by Peter Selinger 2001-2013
</metadata>
<g transform="translate(0.000000,500.000000) scale(0.100000,-0.100000)"
fill="#000000" stroke="none">
<path d="M818 4552 l-368 -2 -1 -25 c0 -14 0 -47 0 -75 0 -75 0 -82 9 -77 4 3
63 8 131 12 88 5 126 3 131 -5 4 -6 3 -32 0 -58 -4 -26 -8 -509 -8 -1073 0
-565 -4 -1046 -7 -1070 -16 -111 -102 -187 -218 -191 -39 -1 -39 -2 -39 -78 0
-61 -59 -56 600 -53 328 1 608 4 622 6 14 3 30 5 36 6 8 1 225 213 274 267 3
4 -11 -3 -30 -14 -69 -41 -192 -81 -330 -108 -37 -7 -400 -11 -513 -6 l-68 4
5 51 c3 29 5 518 6 1087 1 690 5 1052 12 1085 17 81 62 133 134 158 44 14 252
16 349 2 28 -4 59 -8 70 -9 242 -33 472 -143 628 -302 155 -158 268 -416 294
-673 14 -139 8 -362 -13 -465 -2 -12 -7 -34 -10 -51 -14 -76 -71 -233 -115
-315 l-30 -55 101 100 c277 274 445 447 451 463 15 41 -1 319 -26 457 -88 466
-429 806 -948 941 -68 18 -72 18 -137 29 -25 4 -54 9 -65 11 -128 25 -336 31
-927 26z"/>
<path d="M2483 2517 c-1330 -1331 -1410 -1413 -1394 -1429 16 -16 98 64 1428
1395 1330 1331 1410 1413 1394 1429 -16 16 -98 -64 -1428 -1395z"/>
<path d="M3330 3165 c-58 -59 -96 -104 -85 -101 78 28 196 45 304 42 229 -6
395 -72 539 -216 62 -61 98 -112 141 -197 35 -71 78 -212 87 -287 4 -28 7 -52
8 -53 2 -2 69 -5 106 -4 l36 1 0 445 c-1 439 -1 445 -21 446 -24 1 -153 1
-178 0 -10 -1 -16 -4 -13 -9 2 -4 8 -49 11 -100 l8 -93 -50 30 c-191 117 -422
187 -658 197 l-130 6 -105 -107z"/>
<path d="M2412 2247 l-243 -243 -2 -145 c-2 -296 41 -491 159 -721 190 -366
527 -606 949 -674 76 -12 287 -11 380 2 366 51 638 206 866 493 l43 53 -50 44
-49 43 -45 -52 c-278 -322 -708 -462 -1098 -356 -275 74 -515 287 -650 579
-37 79 -83 216 -97 285 -3 17 -7 41 -10 54 -26 137 -26 382 0 551 11 70 44
198 69 263 14 37 24 67 23 67 -1 0 -112 -109 -245 -243z"/>
</g>
</svg>
